<svg width="142" height="66" viewBox="0 0 142 66" fill="none" xmlns="http://www.w3.org/2000/svg">
<g id="Amazon_logo 1" clip-path="url(#clip0_192_226)">
<path id="path8" d="M87.8514 44.8963C79.6448 50.8754 67.7499 54.0655 57.5086 54.0655C43.1486 54.0655 30.2209 48.8155 20.4406 40.0838C19.6722 39.3972 20.3607 38.4615 21.2828 38.9962C31.8376 45.0664 44.8882 48.7183 58.3692 48.7183C67.461 48.7183 77.4625 46.859 86.6588 43.0005C88.0481 42.4172 89.2099 43.8998 87.8514 44.8963Z" fill="#FF9900"/>
<path id="path10" d="M91.2632 41.038C90.2182 39.7133 84.3291 40.4121 81.6858 40.722C80.8805 40.8192 80.7576 40.1265 81.483 39.6283C86.1733 36.3653 93.8697 37.3071 94.7672 38.4008C95.6647 39.5007 94.5336 47.1265 90.126 50.7662C89.4498 51.3252 88.8043 51.0275 89.1056 50.2862C90.0953 47.8435 92.3144 42.3687 91.2632 41.038Z" fill="#FF9900"/>
<path id="path12" d="M81.8703 16.5927V13.4209C81.8703 12.9409 82.2392 12.6188 82.6818 12.6188H97.0479C97.5089 12.6188 97.8778 12.9469 97.8778 13.4209V16.137C97.8716 16.5927 97.4843 17.1882 96.7959 18.13L89.3515 28.636C92.1178 28.5692 95.0377 28.9763 97.5458 30.3739C98.1114 30.6898 98.2651 31.1516 98.3081 31.6074V34.9919C98.3081 35.4537 97.7917 35.9945 97.2508 35.715C92.8309 33.4242 86.9602 33.1751 82.0732 35.7393C81.5753 36.0066 81.0527 35.4719 81.0527 35.0101V31.7957C81.0527 31.2793 81.0589 30.3982 81.5814 29.6143L90.206 17.3887H82.7002C82.2392 17.3887 81.8703 17.0667 81.8703 16.5927Z" fill="#221F1F"/>
<path id="path14" d="M29.4649 36.3833H25.0942C24.6762 36.3529 24.3442 36.043 24.3135 35.6481V13.4755C24.3135 13.0319 24.6885 12.6795 25.1556 12.6795H29.2313C29.6554 12.6977 29.9935 13.0198 30.0243 13.4208V16.3192H30.1042C31.1677 13.5181 33.1655 12.2116 35.858 12.2116C38.5935 12.2116 40.3025 13.5181 41.5319 16.3192C42.5893 13.5181 44.9928 12.2116 47.5685 12.2116C49.4004 12.2116 51.4044 12.959 52.6277 14.6361C54.0108 16.5015 53.7281 19.2116 53.7281 21.5874L53.7219 35.5812C53.7219 36.0248 53.3469 36.3833 52.8798 36.3833H48.5152C48.0788 36.3529 47.7284 36.0066 47.7284 35.5812V23.8296C47.7284 22.8938 47.8144 20.5605 47.6054 19.6734C47.2796 18.1847 46.3022 17.7654 45.0359 17.7654C43.9785 17.7654 42.872 18.4642 42.4233 19.5822C41.9745 20.7003 42.0176 22.5718 42.0176 23.8296V35.5812C42.0176 36.0248 41.6426 36.3833 41.1754 36.3833H36.8108C36.3682 36.3529 36.024 36.0066 36.024 35.5812L36.0178 23.8296C36.0178 21.3565 36.4297 17.7168 33.3253 17.7168C30.1841 17.7168 30.307 21.2654 30.307 23.8296V35.5812C30.307 36.0248 29.9321 36.3833 29.4649 36.3833Z" fill="#221F1F"/>
<path id="path16" d="M110.246 12.2116C116.731 12.2116 120.241 17.7168 120.241 24.7168C120.241 31.4797 116.362 36.8451 110.246 36.8451C103.877 36.8451 100.41 31.34 100.41 24.4798C100.41 17.577 103.92 12.2116 110.246 12.2116ZM110.283 16.7385C107.062 16.7385 106.859 21.077 106.859 23.781C106.859 26.491 106.816 32.2757 110.246 32.2757C113.633 32.2757 113.793 27.6091 113.793 24.7654C113.793 22.8938 113.713 20.6578 113.141 18.8835C112.649 17.3401 111.672 16.7385 110.283 16.7385Z" fill="#221F1F"/>
<path id="path18" d="M128.651 36.3833H124.298C123.862 36.3529 123.512 36.0066 123.512 35.5812L123.505 13.4026C123.542 12.9955 123.905 12.6795 124.348 12.6795H128.399C128.78 12.6977 129.093 12.953 129.179 13.2993V16.6899H129.259C130.482 13.6578 132.198 12.2116 135.216 12.2116C137.177 12.2116 139.089 12.9104 140.318 14.8245C141.461 16.5988 141.461 19.5822 141.461 21.7272V35.6845C141.412 36.0734 141.05 36.3833 140.619 36.3833H136.236C135.837 36.3529 135.505 36.0613 135.462 35.6845V23.6412C135.462 21.2168 135.745 17.6682 132.726 17.6682C131.663 17.6682 130.685 18.3731 130.2 19.4425C129.585 20.7975 129.505 22.1465 129.505 23.6412V35.5812C129.499 36.0248 129.118 36.3833 128.651 36.3833Z" fill="#221F1F"/>
<path id="path30" d="M13.1192 25.7922V24.8564C9.95953 24.8564 6.62157 25.5248 6.62157 29.2071C6.62157 31.0725 7.59898 32.3364 9.27718 32.3364C10.5066 32.3364 11.607 31.589 12.3016 30.3738C13.1622 28.879 13.1192 27.4753 13.1192 25.7922ZM17.5268 36.3225C17.2379 36.5777 16.8199 36.5959 16.4941 36.4258C15.0433 35.2348 14.7851 34.6819 13.986 33.5456C11.5885 35.964 9.89191 36.6871 6.7814 36.6871C3.10534 36.6871 0.240723 34.4449 0.240723 29.9545C0.240723 26.4484 2.16481 24.0604 4.90034 22.8938C7.27318 21.8608 10.5865 21.6785 13.1192 21.3929V20.8339C13.1192 19.807 13.1991 18.5917 12.5906 17.7046C12.0557 16.9086 11.0353 16.5805 10.1378 16.5805C8.47189 16.5805 6.98426 17.4251 6.62157 19.1751C6.5478 19.5639 6.25888 19.9468 5.86546 19.965L1.62385 19.5153C1.26731 19.4363 0.873888 19.1508 0.972245 18.61C1.94966 13.5301 6.59083 11.9989 10.7464 11.9989C12.8733 11.9989 15.6519 12.5579 17.3301 14.1499C19.457 16.1126 19.2542 18.7315 19.2542 21.5813V28.3139C19.2542 30.3373 20.1025 31.2244 20.9016 32.3182C21.1844 32.7071 21.2459 33.175 20.8893 33.4666C19.998 34.2019 18.412 35.569 17.5391 36.3347L17.5268 36.3225" fill="#221F1F"/>
<path id="path30_2" d="M69.7774 25.7922V24.8564C66.6177 24.8564 63.2798 25.5248 63.2798 29.2071C63.2798 31.0725 64.2572 32.3364 65.9354 32.3364C67.1648 32.3364 68.2652 31.589 68.9598 30.3738C69.8204 28.879 69.7774 27.4753 69.7774 25.7922ZM74.185 36.3225C73.8961 36.5777 73.4781 36.5959 73.1522 36.4258C71.7015 35.2348 71.4433 34.6819 70.6442 33.5456C68.2467 35.964 66.5501 36.6871 63.4396 36.6871C59.7635 36.6871 56.8989 34.4449 56.8989 29.9545C56.8989 26.4484 58.823 24.0604 61.5585 22.8938C63.9314 21.8608 67.2447 21.6785 69.7774 21.3929V20.8339C69.7774 19.807 69.8573 18.5917 69.2487 17.7046C68.7139 16.9086 67.6935 16.5805 66.796 16.5805C65.1301 16.5805 63.6425 17.4251 63.2798 19.1751C63.206 19.5639 62.9171 19.9468 62.5237 19.965L58.2821 19.5153C57.9255 19.4363 57.5321 19.1508 57.6304 18.61C58.6079 13.5301 63.249 11.9989 67.4046 11.9989C69.5315 11.9989 72.3101 12.5579 73.9883 14.1499C76.1152 16.1126 75.9124 18.7315 75.9124 21.5813V28.3139C75.9124 30.3373 76.7607 31.2244 77.5598 32.3182C77.8426 32.7071 77.9041 33.175 77.5475 33.4666C76.6562 34.2019 75.0702 35.569 74.1973 36.3347L74.185 36.3225" fill="#221F1F"/>
</g>
<defs>
<clipPath id="clip0_192_226">
<rect width="141.499" height="65.644" fill="white" transform="translate(0.377441 0.211304)"/>
</clipPath>
</defs>
</svg>
