<svg width="144" height="71" viewBox="0 0 144 71" fill="none" xmlns="http://www.w3.org/2000/svg">
<g id="apple-ar21 (1) 1">
<g id="Group">
<path id="Vector" d="M38.6153 35.5624C38.5659 30.2342 43.0614 27.6742 43.264 27.5484C40.7346 23.9238 36.8022 23.4301 35.3992 23.3721C32.0548 23.0382 28.8684 25.303 27.1689 25.303C25.4695 25.303 22.8513 23.4205 20.0749 23.4737C16.4241 23.5269 13.0599 25.5498 11.1777 28.7534C7.38858 35.1897 10.2094 44.7377 13.9046 49.969C15.7127 52.5242 17.8617 55.4036 20.6924 55.2971C23.4194 55.1907 24.4469 53.5695 27.7371 53.5695C31.0272 53.5695 31.956 55.2971 34.8311 55.2439C37.7606 55.1858 39.6181 52.6307 41.4114 50.0658C43.4813 47.0993 44.336 44.2248 44.3854 44.0747C44.3212 44.0505 38.6746 41.9309 38.6153 35.5624Z" fill="#1E2025"/>
</g>
<path id="Vector_2" d="M33.206 19.9125C34.707 18.1316 35.7196 15.6529 35.4433 13.1859C33.2798 13.2734 30.6613 14.598 29.1102 16.38C27.7223 17.9531 26.4893 20.4738 26.8324 22.8942C29.2389 23.0786 31.7049 21.6887 33.206 19.9137" fill="#1E2025"/>
<path id="Vector_3" opacity="0.4" d="M57.5804 40.8028L55.0786 48.1923H51.8906L60.0368 24.7005H63.7716L71.9524 48.1923H68.6405L66.0768 40.8028H57.5804ZM65.4454 38.4314L63.0985 31.671C62.5648 30.1364 62.2098 28.7418 61.8536 27.3834H61.7845L60.5753 31.6488L58.2284 38.4431L65.4454 38.4314Z" fill="#1E2025"/>
<path id="Vector_4" opacity="0.4" d="M74.3764 36.8306L74.2334 31.3223H77.0449L77.1879 34.2165H77.257C78.5364 32.1602 80.5664 30.9407 83.3779 30.9407C87.5428 30.9407 90.6688 34.3915 90.6688 39.5159C90.6688 45.5796 86.8995 48.5753 82.8419 48.5753C80.5641 48.5753 78.5734 47.5974 77.5405 45.9285H77.4714V55.1059H74.374L74.3764 36.8306ZM77.469 41.3259C77.469 41.7927 77.5381 42.1965 77.612 42.5792C78.1802 44.7032 80.0661 46.1701 82.3105 46.1701C85.62 46.1701 87.5523 43.5233 87.5523 39.6512C87.5523 36.2669 85.7391 33.3797 82.4297 33.3797C80.2853 33.3797 78.3041 34.8805 77.6966 37.1783C77.5655 37.5841 77.4941 38.0062 77.4845 38.4317V41.3259H77.469ZM93.9056 36.8306L93.7627 31.3223H96.5742L96.7171 34.2165H96.7862C98.0657 32.1602 100.096 30.9407 102.907 30.9407C107.072 30.9407 110.198 34.3915 110.198 39.5159C110.198 45.5796 106.429 48.5753 102.371 48.5753C100.093 48.5753 98.1026 47.5974 97.0698 45.9285H97.0007V55.1059H93.9032L93.9056 36.8306ZM97.003 41.3259C97.003 41.7927 97.0721 42.1965 97.146 42.5792C97.7142 44.7032 99.6001 46.1701 101.845 46.1701C105.154 46.1701 107.086 43.5233 107.086 39.6512C107.086 36.2669 105.273 33.3797 101.964 33.3797C99.8193 33.3797 97.8382 34.8805 97.2306 37.1783C97.0995 37.5841 97.0281 38.0062 97.0185 38.4317V41.3259H97.003ZM113.438 23.4497H116.572V48.1937H113.438V23.4497ZM122.864 40.3153C122.933 44.4628 125.64 46.1713 128.767 46.1713C131.01 46.1713 132.359 45.7885 133.535 45.3007L134.068 47.4982C132.967 47.9883 131.09 48.5438 128.343 48.5438C123.042 48.5438 119.875 45.1268 119.875 40.041C119.875 34.9552 122.933 30.943 127.952 30.943C133.575 30.943 135.064 35.7861 135.064 38.8787C135.064 39.5089 134.995 39.992 134.945 40.3059L122.864 40.3153ZM132.043 38.1178C132.079 36.1689 131.224 33.1347 127.701 33.1347C124.534 33.1347 123.146 35.9938 122.9 38.1178H132.043Z" fill="#1E2025"/>
</g>
</svg>
