<svg width="119" height="40" viewBox="0 0 119 40" fill="none" xmlns="http://www.w3.org/2000/svg">
<g id="Frame 3466474">
<g id="Group">
<path id="Vector" d="M46.9736 32.8236V7.11325H51.6954V32.8236H46.9736ZM92.2196 15.3374H96.7339V17.4648C97.6938 15.7525 99.9249 14.8445 101.845 14.8445C104.232 14.8445 106.151 15.8823 107.034 17.7502C108.409 15.6228 110.277 14.8445 112.586 14.8445C115.803 14.8445 118.89 16.7903 118.89 21.4861V32.8236H114.324V22.446C114.324 20.5781 113.39 19.1512 111.236 19.1512C109.213 19.1512 108.019 20.7078 108.019 22.6017V32.8236H103.35V22.446C103.35 20.5781 102.39 19.1512 100.262 19.1512C98.2127 19.1512 96.9933 20.6819 96.9933 22.6017V32.8236H92.2715V15.3374H92.2196ZM62.3583 33.3424C57.0398 33.3424 53.2001 29.399 53.2001 24.1064C53.2001 18.8917 57.0398 14.8445 62.3583 14.8445C67.7287 14.8445 71.5165 18.9177 71.5165 24.1064C71.5165 29.3471 67.6768 33.3424 62.3583 33.3424ZM62.3583 19.1252C59.6083 19.1252 57.3771 21.3564 57.3771 24.1064C57.3771 26.8565 59.6083 29.0877 62.3583 29.0877C65.1084 29.0877 67.3136 26.8565 67.3395 24.1064C67.3136 21.3305 65.1084 19.1252 62.3583 19.1252ZM81.6086 33.3424C76.2901 33.3424 72.4505 29.399 72.4505 24.1064C72.4505 18.8917 76.2901 14.8445 81.6086 14.8445C86.979 14.8445 90.7668 18.9177 90.7668 24.1064C90.7668 29.3471 86.9012 33.3424 81.6086 33.3424ZM81.6086 19.0474C78.8326 19.0474 76.5755 21.3045 76.5755 24.0805C76.5755 26.8565 78.8326 29.1136 81.6086 29.1136C84.3846 29.1136 86.6417 26.8565 86.6417 24.0805C86.6158 21.3045 84.3846 19.0474 81.6086 19.0474Z" fill="black"/>
</g>
<path id="Vector_2" d="M19.7845 25.4555C16.775 25.4555 14.3623 23.0168 14.3623 20.0333C14.3623 17.0497 16.801 14.611 19.7845 14.611C22.7681 14.611 25.2068 17.0497 25.2068 20.0333C25.2068 23.0168 22.794 25.4555 19.7845 25.4555ZM38.8532 18.0356H27.2304L37.2966 12.2242L35.2989 8.77366L25.2327 14.5851L31.0441 4.51887L27.5936 2.5212L21.7822 12.5874V0.964569H17.7868V12.5874L11.9754 2.5212L8.52491 4.51887L14.3363 14.5851L4.27012 8.77366L2.27245 12.2242L12.3386 18.0356H0.71582V22.0309H12.3386L2.27245 27.8424L4.27012 31.2929L14.3363 25.4815L8.52491 35.5477L11.9754 37.5453L17.7868 27.4791V39.102H21.7822V27.2456L27.6974 37.4934L30.9404 35.6255L25.0252 25.3517L35.2989 31.2929L37.2966 27.8424L27.2304 22.0309H38.8532V18.0356Z" fill="#525AA5"/>
</g>
</svg>
