<svg width="166" height="87" viewBox="0 0 166 87" fill="none" xmlns="http://www.w3.org/2000/svg">
<g id="Meta_Platforms_Inc._logo 1" clip-path="url(#clip0_192_235)">
<path id="Logo0" d="M5.58455 48.1805C5.58455 50.0646 6.00695 51.5111 6.55906 52.3862C7.28293 53.5324 8.3626 54.018 9.4633 54.018C10.883 54.018 12.1818 53.6731 14.6846 50.2842C16.6897 47.5679 19.0524 43.7551 20.6421 41.3649L23.3343 37.3153C25.2044 34.5029 27.369 31.3765 29.8508 29.2574C31.877 27.5277 34.0626 26.5668 36.2623 26.5668C39.9552 26.5668 43.4729 28.662 46.1651 32.5914C49.1114 36.8949 50.5416 42.3155 50.5416 47.9094C50.5416 51.2348 49.8721 53.6783 48.7328 55.6087C47.6321 57.4756 45.4868 59.3408 41.878 59.3408V54.018C44.968 54.018 45.7392 51.2382 45.7392 48.0569C45.7392 43.5235 44.6595 38.4924 42.2811 34.8976C40.5932 32.3477 38.4058 30.7897 35.9994 30.7897C33.3966 30.7897 31.3021 32.7115 28.9482 36.1382C27.6968 37.9588 26.412 40.1775 24.9695 42.681L23.3816 45.435C20.1917 50.9723 19.3837 52.2335 17.7887 54.3149C14.9931 57.9595 12.6059 59.3408 9.4633 59.3408C5.73528 59.3408 3.37788 57.7604 1.91788 55.3787C0.726031 53.438 0.140625 50.8916 0.140625 47.99L5.58455 48.1805Z" fill="#0081FB"/>
<path id="Logo1" d="M4.43359 32.9672C6.92946 29.2008 10.5313 26.5668 14.6624 26.5668C17.0549 26.5668 19.4333 27.2601 21.9169 29.2454C24.6336 31.416 27.5291 34.9903 31.1414 40.881L32.4367 42.995C35.5635 48.0947 37.3425 50.7183 38.3836 51.9555C39.7227 53.5444 40.6604 54.018 41.8785 54.018C44.9686 54.018 45.7398 51.2382 45.7398 48.0569L50.5422 47.9094C50.5422 51.2348 49.8727 53.6783 48.7334 55.6087C47.6327 57.4756 45.4874 59.3408 41.8785 59.3408C39.6351 59.3408 37.6475 58.8638 35.4496 56.8338C33.76 55.2758 31.7847 52.508 30.2651 50.0199L25.7448 42.6278C23.4768 38.918 21.3963 36.1519 20.1922 34.8993C18.897 33.5523 17.2319 31.9256 14.5748 31.9256C12.4242 31.9256 10.5979 33.403 9.06952 35.6629L4.43359 32.9672Z" fill="#0081FB"/>
<path id="Logo2" d="M14.5742 31.9256C12.4236 31.9256 10.5973 33.403 9.06894 35.6629C6.90785 38.8562 5.58455 43.6127 5.58455 48.1805C5.58455 50.0646 6.00695 51.5111 6.55906 52.3862L1.91788 55.3787C0.726031 53.438 0.140625 50.8916 0.140625 47.99C0.140625 42.7136 1.61991 37.2141 4.43302 32.9672C6.92888 29.2008 10.5307 26.5668 14.6618 26.5668L14.5742 31.9256Z" fill="#0081FB"/>
<path id="Text" d="M61.125 27.6033H67.4225L78.1298 46.5676L88.8389 27.6033H94.9997V58.7643H89.8625V34.8822L80.4714 51.4202H75.6515L66.2622 34.8822V58.7643H61.125V27.6033ZM111.097 39.2218C107.412 39.2218 105.193 41.9364 104.662 45.2978H117.166C116.909 41.8351 114.868 39.2218 111.097 39.2218ZM99.569 47.2128C99.569 40.1398 104.238 34.9921 111.186 34.9921C118.02 34.9921 122.1 40.0746 122.1 47.5903V48.9716H104.662C105.281 52.6282 107.759 55.0923 111.756 55.0923C114.944 55.0923 116.937 54.1399 118.826 52.3983L121.555 55.6705C118.984 57.9853 115.713 59.3203 111.573 59.3203C104.052 59.3203 99.569 53.9512 99.569 47.2128ZM128.329 39.6679H123.6V35.5497H128.329V28.7393H133.286V35.5497H140.47V39.6679H133.286V50.1058C133.286 53.6698 134.45 54.9361 137.31 54.9361C138.616 54.9361 139.364 54.8263 140.47 54.6461V58.7197C139.093 59.1007 137.778 59.2757 136.355 59.2757C131.004 59.2757 128.329 56.4135 128.329 50.6841V39.6679ZM161.342 43.6729C160.346 41.2122 158.125 39.4002 154.862 39.4002C150.62 39.4002 147.905 42.3465 147.905 47.1459C147.905 51.8252 150.405 54.9138 154.658 54.9138C158.003 54.9138 160.39 53.0092 161.342 50.6395V43.6729ZM166.298 58.7643H161.433V55.5144C160.073 57.4276 157.598 59.3203 153.589 59.3203C147.143 59.3203 142.835 54.037 142.835 47.1459C142.835 40.1896 147.246 34.9921 153.863 34.9921C157.133 34.9921 159.699 36.2721 161.433 38.532V35.5497H166.298V58.7643Z" fill="#1C2B33"/>
</g>
<defs>
<clipPath id="clip0_192_235">
<rect width="164.839" height="86.0666" fill="white" transform="translate(0.876465)"/>
</clipPath>
</defs>
</svg>
