<svg width="163" height="66" viewBox="0 0 163 66" fill="none" xmlns="http://www.w3.org/2000/svg">
<g id="Samsung_wordmark 1" clip-path="url(#clip0_192_220)">
<g id="g8">
<g id="g10">
<g id="g12">
<g id="g18">
<path id="path20" d="M153.978 31.5133V34.9161H156.348V38.2923C156.355 38.594 156.339 38.9193 156.287 39.1797C156.193 39.8094 155.601 40.8817 153.919 40.8817C152.247 40.8817 151.665 39.8094 151.564 39.1797C151.522 38.9193 151.503 38.594 151.503 38.2923V27.6288C151.503 27.2516 151.529 26.8387 151.608 26.5263C151.723 25.9579 152.222 24.8371 153.906 24.8371C155.674 24.8371 156.116 26.0187 156.217 26.5263C156.284 26.8624 156.287 27.4262 156.287 27.4262V28.7211H162.109V27.9556C162.109 27.9556 162.135 27.1569 162.065 26.4115C161.627 22.0347 158.054 20.65 153.958 20.65C149.853 20.65 146.353 22.0476 145.843 26.4115C145.797 26.8106 145.727 27.5284 145.727 27.9556V37.765C145.727 38.1922 145.74 38.523 145.819 39.3037C146.199 43.5601 149.853 45.0689 153.941 45.0689C158.054 45.0689 161.684 43.5601 162.07 39.3037C162.139 38.523 162.146 38.1922 162.155 37.765V31.5133H153.978ZM113.837 21.2776H107.991V38.5383C108 38.8391 107.991 39.177 107.939 39.4248C107.817 40.0042 107.331 41.1193 105.718 41.1193C104.126 41.1193 103.626 40.0042 103.514 39.4248C103.455 39.177 103.448 38.8391 103.455 38.5383V21.2776H97.6105V38.0026C97.6031 38.4337 97.6366 39.3145 97.6619 39.5452C98.0652 43.9034 101.468 45.3184 105.718 45.3184C109.975 45.3184 113.377 43.9034 113.787 39.5452C113.82 39.3145 113.862 38.4337 113.837 38.0026V21.2776ZM60.12 21.2776L57.2037 39.5158L54.2891 21.2776H44.8586L44.3584 44.6096H50.1359L50.2923 23.0105L54.2674 44.6096H60.1292L64.1079 23.0105L64.2649 44.6096H70.0569L69.5398 21.2776H60.12ZM25.2039 21.2776L20.9218 44.6096H27.1662L30.393 23.0105L33.5423 44.6096H39.7434L35.4791 21.2776H25.2039ZM134.269 40.0626L128.825 21.2776H120.247V44.3663H125.921L125.592 24.9803L131.438 44.3663H139.665V21.2776H133.953L134.269 40.0626ZM81.7783 27.3499C81.6756 26.8891 81.7053 26.3995 81.7584 26.1437C81.9238 25.3968 82.4209 24.5822 83.8534 24.5822C85.1886 24.5822 85.9713 25.4223 85.9713 26.683V28.1096H91.6704V26.4834C91.6704 21.4562 87.2049 20.6665 83.9719 20.6665C79.9 20.6665 76.5746 22.0212 75.9673 25.8039C75.8067 26.8333 75.767 27.7471 76.0225 28.9131C77.0127 33.6297 85.1479 34.9979 86.3287 37.9807C86.5371 38.5458 86.4774 39.2663 86.3711 39.6908C86.1942 40.4671 85.6768 41.2478 84.1431 41.2478C82.7047 41.2478 81.8389 40.4131 81.8389 39.1551L81.8371 36.916H75.7028V38.6959C75.7028 43.8534 79.7053 45.4095 84.0161 45.4095C88.1447 45.4095 91.5546 43.9855 92.1017 40.1255C92.3626 38.1311 92.1658 36.8321 92.061 36.3428C91.1052 31.5052 82.4346 30.0501 81.7783 27.3499ZM6.59989 27.2926C6.48799 26.8223 6.51411 26.3258 6.57644 26.067C6.73435 25.3237 7.2345 24.4947 8.69222 24.4947C10.0443 24.4947 10.8404 25.3429 10.8404 26.6137V28.0578H16.6062V26.4187C16.6062 21.3433 12.0725 20.5343 8.80413 20.5343C4.69812 20.5343 1.34308 21.9101 0.729241 25.7201C0.561236 26.7659 0.532434 27.686 0.775239 28.8649C1.77614 33.6351 9.99174 35.0144 11.1871 38.0328C11.4109 38.594 11.3432 39.3145 11.2322 39.7555C11.0425 40.5399 10.521 41.3317 8.97451 41.3317C7.53045 41.3317 6.66668 40.4826 6.66668 39.2073L6.65866 36.9621H0.455566V38.7462C0.455566 43.9627 4.51468 45.5314 8.85905 45.5314C13.0357 45.5314 16.4655 44.0949 17.0251 40.1902C17.3032 38.1775 17.0945 36.8677 17.0007 36.371C16.0251 31.4741 7.25796 30.0237 6.59989 27.2926Z" fill="#034EA2"/>
</g>
</g>
</g>
</g>
</g>
<defs>
<clipPath id="clip0_192_220">
<rect width="161.922" height="65.644" fill="white" transform="translate(0.455566 0.21109)"/>
</clipPath>
</defs>
</svg>
